<svg preserveAspectRatio="none" overflow="visible" style="display: block;" width="112" height="112" viewBox="0 0 112 112" fill="none" xmlns="http://www.w3.org/2000/svg">
<g id="white line symbol">
<path id="Vector" d="M27 39L44 55L27 71M53 74H84" stroke="white" stroke-width="7" stroke-linecap="round" stroke-linejoin="round"/>
<path id="Vector_2" d="M30 28C32.2091 28 34 26.2091 34 24C34 21.7909 32.2091 20 30 20C27.7909 20 26 21.7909 26 24C26 26.2091 27.7909 28 30 28Z" fill="#FF6B6B"/>
<path id="Vector_3" d="M43 28C45.2091 28 47 26.2091 47 24C47 21.7909 45.2091 20 43 20C40.7909 20 39 21.7909 39 24C39 26.2091 40.7909 28 43 28Z" fill="#FFD45D"/>
<path id="Vector_4" d="M56 28C58.2091 28 60 26.2091 60 24C60 21.7909 58.2091 20 56 20C53.7909 20 52 21.7909 52 24C52 26.2091 53.7909 28 56 28Z" fill="#35D6A3"/>
</g>
</svg>
